<?xml version="1.0" standalone="no"?>
<!DOCTYPE svg PUBLIC "-//W3C//DTD SVG 20010904//EN"
 "http://www.w3.org/TR/2001/REC-SVG-20010904/DTD/svg10.dtd">
<svg version="1.0" xmlns="http://www.w3.org/2000/svg"
 width="472.000000pt" height="528.000000pt" viewBox="0 0 472.000000 528.000000"
 preserveAspectRatio="xMidYMid meet">

<g transform="translate(0.000000,528.000000) scale(0.100000,-0.100000)"
fill="#000000" stroke="none">
<path d="M1619 4317 c-153 -52 -258 -173 -289 -333 -7 -36 -10 -135 -8 -257
l3 -199 28 -24 28 -24 984 2 984 3 23 23 c22 22 23 30 26 220 4 221 -4 283
-49 378 -32 67 -112 150 -178 183 -100 51 -97 51 -815 51 -671 -1 -671 -1
-737 -23z"/>
<path d="M1349 3011 l-29 -29 0 -370 0 -370 26 -31 26 -31 982 0 983 0 26 24
c14 13 28 39 32 57 3 19 4 191 3 382 l-3 349 -28 24 -28 24 -980 0 -981 0 -29
-29z"/>
<path d="M1371 1726 c-46 -25 -50 -48 -50 -251 -1 -207 10 -278 54 -365 53
-105 173 -195 295 -221 30 -6 186 -9 412 -7 373 3 380 4 426 44 92 80 153 127
189 146 24 13 46 31 49 41 3 11 16 17 35 17 19 0 29 5 29 15 0 8 -5 15 -12 15
-6 0 -3 9 7 20 13 14 22 17 29 10 17 -17 33 -11 80 33 49 45 55 57 31 57 -9 0
-12 6 -9 15 8 19 24 19 24 0 0 -23 10 -18 47 20 19 19 42 35 51 35 14 0 14 2
3 9 -11 7 -9 10 8 16 12 4 20 13 19 22 -2 9 3 18 11 21 8 3 11 0 7 -7 -5 -7
-1 -9 9 -5 9 4 14 13 11 20 -7 18 -1 18 18 -2 10 -9 24 -13 36 -9 23 7 27 35
5 35 -8 0 -15 7 -15 15 0 9 9 14 23 14 12 0 45 5 72 13 38 10 49 18 47 31 -3
19 23 24 34 6 5 -8 10 -6 16 5 5 9 13 14 19 11 15 -10 10 108 -6 129 -8 10
-12 22 -10 27 3 4 -4 5 -14 2 -14 -3 -19 0 -18 14 2 17 -33 18 -968 20 -791 2
-974 0 -994 -11z m1919 -156 c0 -5 -5 -10 -11 -10 -5 0 -7 5 -4 10 3 6 8 10
11 10 2 0 4 -4 4 -10z m-570 -450 c-20 -13 -33 -13 -25 0 3 6 14 10 23 10 15
0 15 -2 2 -10z"/>
<path d="M3040 1315 c0 -9 6 -12 15 -9 8 4 15 7 15 9 0 2 -7 5 -15 9 -9 3 -15
0 -15 -9z"/>
</g>
</svg>
